<svg xmlns="http://www.w3.org/2000/svg" viewBox="0 0 32 32" width="32" height="32">
  <defs>
    <radialGradient id="glow" cx="50%" cy="65%" r="55%">
      <stop offset="0%" stop-color="#FFB366" stop-opacity="0.85"/>
      <stop offset="60%" stop-color="#C87533" stop-opacity="0.6"/>
      <stop offset="100%" stop-color="#C87533" stop-opacity="0"/>
    </radialGradient>
    <linearGradient id="flame" x1="50%" y1="0%" x2="50%" y2="100%">
      <stop offset="0%" stop-color="#FFB366"/>
      <stop offset="55%" stop-color="#D9924E"/>
      <stop offset="100%" stop-color="#C87533"/>
    </linearGradient>
  </defs>
  <circle cx="16" cy="18" r="14" fill="url(#glow)"/>
  <path
    d="M16 3
       C 17.5 7  20.5 9.5  20.5 14
       C 22  13  22.5 11  22  9
       C 25  12  26  16  26  19
       C 26  24.5  21.5  29  16  29
       C 10.5 29  6   24.5  6   19
       C 6   16  7   13.5  9   11.5
       C 9.5 14  11  15.5  12.5 15
       C 12  12  13  8     16  3 Z"
    fill="url(#flame)"/>
  <path
    d="M16 14
       C 17 16  18.5 17.5  18.5 20
       C 18.5 23  17  25  16  25
       C 15  25  13.5 23  13.5 20
       C 13.5 18  14.5 16  16 14 Z"
    fill="#FFE0B0" opacity="0.85"/>
</svg>
